<?xml version="1.0" encoding="UTF-8"?>
<svg id="Layer_2" xmlns="http://www.w3.org/2000/svg" viewBox="0 0 283.65 283.65">
  <defs>
    <style>
      .cls-1 {
        fill: #231f20;
        stroke: #231f20;
        stroke-miterlimit: 10;
        stroke-width: 4px;
      }

      .cls-2 {
        fill: none;
        stroke: #fff;
        stroke-linecap: round;
        stroke-linejoin: round;
        stroke-width: 5px;
      }
    </style>
  </defs>
  <g id="Layer_3">
    <g>
      <circle class="cls-1" cx="141.82" cy="141.82" r="139.82"/>
      <g>
        <g>
          <polyline class="cls-2" points="150.1 201.34 124.87 224.06 132.09 183.49 100.25 212.16 133.1 175.45 91.13 213.24 131.51 174.65 90.27 211.78 125.12 161.72 77.34 204.75 103.05 154.98 66.64 187.76 99.89 141.77 58.47 179.07 90.42 132.77 57.31 162.58 82.68 132.82 61.35 152.02"/>
          <polyline class="cls-2" points="151.05 216.56 124.87 240.13 147.52 185.66 99.14 229.23 145.82 180.07 89.52 230.76 143.37 180.03 88.5 229.44 132.25 171.37 74.55 223.33 109.08 165.61 61.24 208.69 107.63 150.87 51.43 201.48 103.6 136.97 47.08 187.86 89.83 131.85 48.1 169.43 72.85 127.16 40.06 156.68"/>
        </g>
        <g>
          <polyline class="cls-2" points="201.11 130.32 214.73 150.51 188.65 151.66 206.56 178.21 184.14 149.33 205.84 181.5 170.17 161.1 196.02 199.44 159.65 166.04 186.9 206.45 151.1 190.77 171.97 221.71 134.62 200.51 152.15 226.5"/>
          <polyline class="cls-2" points="216.51 129.36 230.78 150.51 193.24 134.67 223.55 179.61 187.55 130.58 222.98 183.11 180.3 152.33 214.35 202.82 171.15 159.31 206.06 211.05 161.51 182.41 193.25 229.46 137.85 184.65 174.63 239.19 131.85 190.95 158.96 231.14 131.07 211.38 146.82 234.73"/>
        </g>
        <g>
          <polyline class="cls-2" points="131.47 82.91 148.5 65.88 149.83 95.52 180.27 65.08 147.43 106.98 181.42 72.99 152.35 108.91 183.56 77.7 163.63 109.28 193.32 79.58 178.73 124.32 206.47 96.58 192.11 133.42 214.37 111.16 193.37 146.21 216.29 123.29 194.27 151.38 216.5 129.16 200.85 149.55 219.53 130.87"/>
          <polyline class="cls-2" points="130.53 67.78 148.45 49.87 134.05 95.23 181.4 47.89 134.66 103.68 182.55 55.8 141.86 103.34 184.69 60.51 156.26 100.58 195.34 61.5 173.4 113.59 210.47 76.52 184.6 124.87 220.6 88.86 181.58 141.94 225.15 98.37 180.47 149.12 226.58 103.01 216.01 150.5 235.58 130.93"/>
        </g>
        <g>
          <polyline class="cls-2" points="80.36 149.63 58.62 127.89 97.36 140.96 62.94 106.53 111.45 127.1 78.79 94.45 120.43 109.61 89.95 79.12 132.94 97.34 105.43 69.82 141.07 96.23 114 69.15 143 84.23 120.07 61.3 148.2 81.45 125.88 59.12"/>
          <polyline class="cls-2" points="65.24 150.57 42.61 127.95 95.08 154.74 46.56 106.22 103.63 135.35 61.49 93.21 109.64 114.88 70.76 76 123.78 104.24 83.13 63.59 133.11 104.34 91.32 62.54 139.66 96.95 94.58 51.87 149.15 70.47 122.34 43.66 145.79 62.93 127.54 44.68"/>
        </g>
      </g>
    </g>
  </g>
</svg>