<?xml version="1.0" encoding="UTF-8"?>
<svg id="Layer_2" xmlns="http://www.w3.org/2000/svg" viewBox="0 0 249.06 249.06">
  <defs>
    <style>
      .cls-1, .cls-2 {
        fill: #231f20;
      }

      .cls-3 {
        fill: #fff;
      }

      .cls-2 {
        stroke: #00a651;
        stroke-miterlimit: 10;
      }
    </style>
  </defs>
  <g id="Layer_2-2" data-name="Layer_2">
    <g>
      <g>
        <circle class="cls-3" cx="124.53" cy="124.53" r="123.11"/>
        <circle class="cls-2" cx="124.53" cy="125.12" r="123.11"/>
        <path class="cls-1" d="M124.53,249.06c-16.81,0-33.12-3.29-48.47-9.79-14.83-6.27-28.15-15.25-39.58-26.69-11.44-11.44-20.41-24.75-26.69-39.58C3.29,157.65,0,141.34,0,124.53s3.29-33.12,9.79-48.47c6.27-14.83,15.25-28.15,26.69-39.58,11.44-11.44,24.75-20.41,39.58-26.69C91.41,3.29,107.72,0,124.53,0s33.12,3.29,48.47,9.79c14.83,6.27,28.15,15.25,39.58,26.69,11.44,11.44,20.41,24.75,26.69,39.58,6.49,15.35,9.79,31.66,9.79,48.47s-3.29,33.12-9.79,48.47c-6.27,14.83-15.25,28.15-26.69,39.58-11.44,11.44-24.75,20.41-39.58,26.69-15.35,6.49-31.66,9.79-48.47,9.79ZM124.53,2.84c-16.43,0-32.36,3.22-47.37,9.56-14.49,6.13-27.5,14.9-38.68,26.08-11.18,11.18-19.95,24.19-26.08,38.68-6.35,15-9.56,30.94-9.56,47.37s3.22,32.36,9.56,47.37c6.13,14.49,14.9,27.5,26.08,38.68,11.18,11.18,24.19,19.95,38.68,26.08,15,6.35,30.94,9.56,47.37,9.56s32.36-3.22,47.37-9.56c14.49-6.13,27.5-14.9,38.68-26.08,11.18-11.18,19.95-24.19,26.08-38.68,6.35-15,9.56-30.94,9.56-47.37s-3.22-32.36-9.56-47.37c-6.13-14.49-14.9-27.5-26.08-38.68-11.18-11.18-24.19-19.95-38.68-26.08-15-6.35-30.94-9.56-47.37-9.56Z"/>
      </g>
      <g>
        <circle class="cls-1" cx="124.53" cy="124.53" r="93.51"/>
        <path class="cls-3" d="M124.53,222.28c-13.2,0-26-2.59-38.05-7.68-11.64-4.92-22.1-11.97-31.07-20.95s-16.02-19.43-20.95-31.07c-5.1-12.05-7.68-24.86-7.68-38.05s2.59-26,7.68-38.05c4.92-11.64,11.97-22.1,20.95-31.07s19.43-16.02,31.07-20.95c12.05-5.1,24.86-7.68,38.05-7.68s26,2.59,38.05,7.68c11.64,4.92,22.1,11.97,31.07,20.95,8.98,8.98,16.02,19.43,20.95,31.07,5.1,12.05,7.68,24.86,7.68,38.05s-2.59,26-7.68,38.05c-4.92,11.64-11.97,22.1-20.95,31.07s-19.43,16.02-31.07,20.95c-12.05,5.1-24.86,7.68-38.05,7.68ZM124.53,35.26c-12.05,0-23.74,2.36-34.75,7.01-10.63,4.5-20.18,10.93-28.38,19.13s-14.64,17.75-19.13,28.38c-4.65,11-7.01,22.69-7.01,34.75s2.36,23.74,7.01,34.75c4.5,10.63,10.93,20.18,19.13,28.38,8.2,8.2,17.75,14.64,28.38,19.13,11,4.65,22.69,7.01,34.75,7.01s23.74-2.36,34.75-7.01c10.63-4.5,20.18-10.93,28.38-19.13,8.2-8.2,14.64-17.75,19.13-28.38,4.65-11,7.01-22.69,7.01-34.75s-2.36-23.74-7.01-34.75c-4.5-10.63-10.93-20.18-19.13-28.38-8.2-8.2-17.75-14.64-28.38-19.13-11-4.65-22.69-7.01-34.75-7.01Z"/>
      </g>
      <g>
        <circle class="cls-1" cx="124.53" cy="124.53" r="63.92"/>
        <path class="cls-3" d="M124.53,195.51c-9.58,0-18.88-1.88-27.63-5.58-8.45-3.58-16.04-8.69-22.56-15.21-6.52-6.52-11.63-14.11-15.21-22.56-3.7-8.76-5.58-18.05-5.58-27.63s1.88-18.88,5.58-27.63c3.58-8.45,8.69-16.04,15.21-22.56,6.52-6.52,14.11-11.63,22.56-15.21,8.76-3.7,18.05-5.58,27.63-5.58s18.88,1.88,27.63,5.58c8.45,3.58,16.04,8.69,22.56,15.21s11.63,14.11,15.21,22.56c3.7,8.76,5.58,18.05,5.58,27.63s-1.88,18.88-5.58,27.63c-3.58,8.45-8.69,16.04-15.21,22.56-6.52,6.52-14.11,11.63-22.56,15.21-8.76,3.7-18.05,5.58-27.63,5.58ZM124.53,67.67c-15.19,0-29.46,5.91-40.2,16.65-10.74,10.74-16.65,25.02-16.65,40.2s5.91,29.46,16.65,40.2c10.74,10.74,25.02,16.65,40.2,16.65s29.46-5.91,40.2-16.65c10.74-10.74,16.65-25.02,16.65-40.2s-5.91-29.46-16.65-40.2c-10.74-10.74-25.02-16.65-40.2-16.65Z"/>
      </g>
      <g>
        <circle class="cls-1" cx="124.53" cy="124.53" r="34.32"/>
        <path class="cls-3" d="M124.53,168.74c-11.81,0-22.91-4.6-31.26-12.95-8.35-8.35-12.95-19.45-12.95-31.26s4.6-22.91,12.95-31.26,19.45-12.95,31.26-12.95,22.91,4.6,31.26,12.95c8.35,8.35,12.95,19.45,12.95,31.26s-4.6,22.91-12.95,31.26c-8.35,8.35-19.45,12.95-31.26,12.95ZM124.53,100.09c-13.48,0-24.44,10.96-24.44,24.44s10.96,24.44,24.44,24.44,24.44-10.96,24.44-24.44-10.96-24.44-24.44-24.44Z"/>
      </g>
      <g>
        <circle class="cls-1" cx="124.53" cy="124.53" r="4.73"/>
        <path class="cls-3" d="M124.53,141.96c-9.61,0-17.43-7.82-17.43-17.43s7.82-17.43,17.43-17.43,17.43,7.82,17.43,17.43-7.82,17.43-17.43,17.43ZM124.53,116.55c-4.4,0-7.98,3.58-7.98,7.98s3.58,7.98,7.98,7.98,7.98-3.58,7.98-7.98-3.58-7.98-7.98-7.98Z"/>
      </g>
    </g>
  </g>
</svg>